<svg xmlns="http://www.w3.org/2000/svg" xmlns:xlink="http://www.w3.org/1999/xlink" width="500" zoomAndPan="magnify" viewBox="0 0 375 374.999991" height="500" preserveAspectRatio="xMidYMid meet" version="1.0"><defs><clipPath id="f0bf844371"><path d="M 132.011719 226.582031 L 240.398438 226.582031 L 240.398438 334.96875 L 132.011719 334.96875 Z M 132.011719 226.582031 " clip-rule="nonzero"/></clipPath><clipPath id="bfb50837f8"><path d="M 186.207031 226.582031 C 156.273438 226.582031 132.011719 250.847656 132.011719 280.777344 C 132.011719 310.707031 156.273438 334.96875 186.207031 334.96875 C 216.136719 334.96875 240.398438 310.707031 240.398438 280.777344 C 240.398438 250.847656 216.136719 226.582031 186.207031 226.582031 Z M 186.207031 226.582031 " clip-rule="nonzero"/></clipPath><clipPath id="1885616af9"><path d="M 75.441406 143.140625 L 140.691406 143.140625 L 140.691406 208.390625 L 75.441406 208.390625 Z M 75.441406 143.140625 " clip-rule="nonzero"/></clipPath><clipPath id="1429033979"><path d="M 108.152344 143.140625 C 90.085938 143.140625 75.441406 157.789062 75.441406 175.855469 C 75.441406 193.921875 90.085938 208.566406 108.152344 208.566406 C 126.21875 208.566406 140.867188 193.921875 140.867188 175.855469 C 140.867188 157.789062 126.21875 143.140625 108.152344 143.140625 Z M 108.152344 143.140625 " clip-rule="nonzero"/></clipPath><clipPath id="b306333299"><path d="M 248.953125 107.796875 L 349.453125 107.796875 L 349.453125 208.296875 L 248.953125 208.296875 Z M 248.953125 107.796875 " clip-rule="nonzero"/></clipPath><clipPath id="9bb74627e0"><path d="M 299.34375 107.796875 C 271.511719 107.796875 248.953125 130.355469 248.953125 158.1875 C 248.953125 186.015625 271.511719 208.578125 299.34375 208.578125 C 327.171875 208.578125 349.734375 186.015625 349.734375 158.1875 C 349.734375 130.355469 327.171875 107.796875 299.34375 107.796875 Z M 299.34375 107.796875 " clip-rule="nonzero"/></clipPath><clipPath id="26960c9051"><path d="M 20.765625 126.875 L 35.300781 126.875 L 35.300781 141.410156 L 20.765625 141.410156 Z M 20.765625 126.875 " clip-rule="nonzero"/></clipPath><clipPath id="1ec2a637aa"><path d="M 28.035156 126.875 C 24.019531 126.875 20.765625 130.128906 20.765625 134.140625 C 20.765625 138.15625 24.019531 141.410156 28.035156 141.410156 C 32.046875 141.410156 35.300781 138.15625 35.300781 134.140625 C 35.300781 130.128906 32.046875 126.875 28.035156 126.875 Z M 28.035156 126.875 " clip-rule="nonzero"/></clipPath><clipPath id="9111e08d2e"><path d="M 20.765625 126.875 L 35.015625 126.875 L 35.015625 141.125 L 20.765625 141.125 Z M 20.765625 126.875 " clip-rule="nonzero"/></clipPath><clipPath id="74b6502172"><path d="M 28.03125 126.875 C 24.019531 126.875 20.765625 130.128906 20.765625 134.140625 C 20.765625 138.152344 24.019531 141.40625 28.03125 141.40625 C 32.042969 141.40625 35.296875 138.152344 35.296875 134.140625 C 35.296875 130.128906 32.042969 126.875 28.03125 126.875 Z M 28.03125 126.875 " clip-rule="nonzero"/></clipPath><clipPath id="424d8a4ff5"><path d="M 23.953125 31.105469 L 117.703125 31.105469 L 117.703125 124.855469 L 23.953125 124.855469 Z M 23.953125 31.105469 " clip-rule="nonzero"/></clipPath><clipPath id="945d8354ff"><path d="M 70.9375 31.105469 C 44.988281 31.105469 23.953125 52.144531 23.953125 78.09375 C 23.953125 104.042969 44.988281 125.078125 70.9375 125.078125 C 96.890625 125.078125 117.925781 104.042969 117.925781 78.09375 C 117.925781 52.144531 96.890625 31.105469 70.9375 31.105469 Z M 70.9375 31.105469 " clip-rule="nonzero"/></clipPath><clipPath id="f7754e1483"><path d="M 225.871094 126.875 L 240.40625 126.875 L 240.40625 141.410156 L 225.871094 141.410156 Z M 225.871094 126.875 " clip-rule="nonzero"/></clipPath><clipPath id="d64b4aa4d7"><path d="M 233.136719 126.875 C 229.125 126.875 225.871094 130.128906 225.871094 134.140625 C 225.871094 138.15625 229.125 141.410156 233.136719 141.410156 C 237.152344 141.410156 240.40625 138.15625 240.40625 134.140625 C 240.40625 130.128906 237.152344 126.875 233.136719 126.875 Z M 233.136719 126.875 " clip-rule="nonzero"/></clipPath><clipPath id="4712057456"><path d="M 225.871094 126.875 L 240.121094 126.875 L 240.121094 141.125 L 225.871094 141.125 Z M 225.871094 126.875 " clip-rule="nonzero"/></clipPath><clipPath id="48c4e83477"><path d="M 233.136719 126.875 C 229.121094 126.875 225.871094 130.128906 225.871094 134.140625 C 225.871094 138.152344 229.121094 141.40625 233.136719 141.40625 C 237.148438 141.40625 240.402344 138.152344 240.402344 134.140625 C 240.402344 130.128906 237.148438 126.875 233.136719 126.875 Z M 233.136719 126.875 " clip-rule="nonzero"/></clipPath><clipPath id="94263b22f8"><path d="M 342.46875 210.375 L 357.003906 210.375 L 357.003906 224.910156 L 342.46875 224.910156 Z M 342.46875 210.375 " clip-rule="nonzero"/></clipPath><clipPath id="36aa13cbc3"><path d="M 349.734375 210.375 C 345.722656 210.375 342.46875 213.628906 342.46875 217.644531 C 342.46875 221.65625 345.722656 224.910156 349.734375 224.910156 C 353.75 224.910156 357.003906 221.65625 357.003906 217.644531 C 357.003906 213.628906 353.75 210.375 349.734375 210.375 Z M 349.734375 210.375 " clip-rule="nonzero"/></clipPath><clipPath id="f28d536c56"><path d="M 342.46875 210.375 L 356.71875 210.375 L 356.71875 224.625 L 342.46875 224.625 Z M 342.46875 210.375 " clip-rule="nonzero"/></clipPath><clipPath id="66c6b6d74b"><path d="M 349.734375 210.375 C 345.722656 210.375 342.46875 213.628906 342.46875 217.640625 C 342.46875 221.652344 345.722656 224.90625 349.734375 224.90625 C 353.746094 224.90625 357 221.652344 357 217.640625 C 357 213.628906 353.746094 210.375 349.734375 210.375 Z M 349.734375 210.375 " clip-rule="nonzero"/></clipPath><clipPath id="93d5acce36"><path d="M 68.171875 210.375 L 82.707031 210.375 L 82.707031 224.910156 L 68.171875 224.910156 Z M 68.171875 210.375 " clip-rule="nonzero"/></clipPath><clipPath id="653f6c8249"><path d="M 75.441406 210.375 C 71.425781 210.375 68.171875 213.628906 68.171875 217.644531 C 68.171875 221.65625 71.425781 224.910156 75.441406 224.910156 C 79.453125 224.910156 82.707031 221.65625 82.707031 217.644531 C 82.707031 213.628906 79.453125 210.375 75.441406 210.375 Z M 75.441406 210.375 " clip-rule="nonzero"/></clipPath><clipPath id="506580a5bc"><path d="M 68.171875 210.375 L 82.421875 210.375 L 82.421875 224.625 L 68.171875 224.625 Z M 68.171875 210.375 " clip-rule="nonzero"/></clipPath><clipPath id="3938ad4f7d"><path d="M 75.4375 210.375 C 71.425781 210.375 68.171875 213.628906 68.171875 217.640625 C 68.171875 221.652344 71.425781 224.90625 75.4375 224.90625 C 79.453125 224.90625 82.703125 221.652344 82.703125 217.640625 C 82.703125 213.628906 79.453125 210.375 75.4375 210.375 Z M 75.4375 210.375 " clip-rule="nonzero"/></clipPath><clipPath id="9f35ed572c"><path d="M 167.699219 59.648438 L 232.949219 59.648438 L 232.949219 124.898438 L 167.699219 124.898438 Z M 167.699219 59.648438 " clip-rule="nonzero"/></clipPath><clipPath id="073ebf9591"><path d="M 200.414062 59.648438 C 182.347656 59.648438 167.699219 74.296875 167.699219 92.363281 C 167.699219 110.429688 182.347656 125.074219 200.414062 125.074219 C 218.480469 125.074219 233.125 110.429688 233.125 92.363281 C 233.125 74.296875 218.480469 59.648438 200.414062 59.648438 Z M 200.414062 59.648438 " clip-rule="nonzero"/></clipPath></defs><g clip-path="url(#f0bf844371)"><g clip-path="url(#bfb50837f8)"><path stroke-linecap="butt" transform="matrix(0.75, 0, 0, 0.75, 132.012111, 226.58266)" fill="none" stroke-linejoin="miter" d="M 72.259898 -0.000838761 C 32.348437 -0.000838761 -0.000523042 32.35333 -0.000523042 72.259583 C -0.000523042 112.165835 32.348437 144.514796 72.259898 144.514796 C 112.166151 144.514796 144.515111 112.165835 144.515111 72.259583 C 144.515111 32.35333 112.166151 -0.000838761 72.259898 -0.000838761 Z M 72.259898 -0.000838761 " stroke="#000000" stroke-width="60" stroke-opacity="1" stroke-miterlimit="4"/></g></g><g clip-path="url(#1885616af9)"><g clip-path="url(#1429033979)"><path stroke-linecap="butt" transform="matrix(0.75, 0, 0, 0.75, 75.440851, 143.142252)" fill="none" stroke-linejoin="miter" d="M 43.615327 -0.0021696 C 19.526784 -0.0021696 0.000740672 19.529082 0.000740672 43.617625 C 0.000740672 67.706168 19.526784 87.232211 43.615327 87.232211 C 67.70387 87.232211 87.235121 67.706168 87.235121 43.617625 C 87.235121 19.529082 67.70387 -0.0021696 43.615327 -0.0021696 Z M 43.615327 -0.0021696 " stroke="#000000" stroke-width="40" stroke-opacity="1" stroke-miterlimit="4"/></g></g><g clip-path="url(#b306333299)"><g clip-path="url(#9bb74627e0)"><path stroke-linecap="butt" transform="matrix(0.75, 0, 0, 0.75, 248.952732, 107.796058)" fill="none" stroke-linejoin="miter" d="M 67.188028 0.0010897 C 30.078651 0.0010897 0.000523797 30.079217 0.000523797 67.188594 C 0.000523797 104.292763 30.078651 134.376099 67.188028 134.376099 C 104.292197 134.376099 134.375533 104.292763 134.375533 67.188594 C 134.375533 30.079217 104.292197 0.0010897 67.188028 0.0010897 Z M 67.188028 0.0010897 " stroke="#000000" stroke-width="60" stroke-opacity="1" stroke-miterlimit="4"/></g></g><path stroke-linecap="butt" transform="matrix(0.75, 0, 0, 0.75, 26.817372, 126.642253)" fill="none" stroke-linejoin="miter" d="M -0.00128716 9.99783 L 275.092481 9.99783 " stroke="#000000" stroke-width="20" stroke-opacity="1" stroke-miterlimit="4"/><g clip-path="url(#26960c9051)"><g clip-path="url(#1ec2a637aa)"><path fill="#000000" d="M 20.765625 126.875 L 35.300781 126.875 L 35.300781 141.410156 L 20.765625 141.410156 Z M 20.765625 126.875 " fill-opacity="1" fill-rule="nonzero"/></g></g><g clip-path="url(#9111e08d2e)"><g clip-path="url(#74b6502172)"><path stroke-linecap="butt" transform="matrix(0.75, 0, 0, 0.75, 20.765857, 126.874722)" fill="none" stroke-linejoin="miter" d="M 9.687191 0.000370575 C 4.338233 0.000370575 -0.000309302 4.338913 -0.000309302 9.687871 C -0.000309302 15.03683 4.338233 19.375372 9.687191 19.375372 C 15.03615 19.375372 19.374692 15.03683 19.374692 9.687871 C 19.374692 4.338913 15.03615 0.000370575 9.687191 0.000370575 Z M 9.687191 0.000370575 " stroke="#000000" stroke-width="132" stroke-opacity="1" stroke-miterlimit="4"/></g></g><g clip-path="url(#424d8a4ff5)"><g clip-path="url(#945d8354ff)"><path stroke-linecap="butt" transform="matrix(0.75, 0, 0, 0.75, 23.952692, 31.106197)" fill="none" stroke-linejoin="miter" d="M 62.646415 -0.000970463 C 28.047454 -0.000970463 0.000577057 28.051115 0.000577057 62.650075 C 0.000577057 97.249036 28.047454 125.295913 62.646415 125.295913 C 97.250583 125.295913 125.29746 97.249036 125.29746 62.650075 C 125.29746 28.051115 97.250583 -0.000970463 62.646415 -0.000970463 Z M 62.646415 -0.000970463 " stroke="#000000" stroke-width="60" stroke-opacity="1" stroke-miterlimit="4"/></g></g><g clip-path="url(#f7754e1483)"><g clip-path="url(#d64b4aa4d7)"><path fill="#000000" d="M 225.871094 126.875 L 240.40625 126.875 L 240.40625 141.410156 L 225.871094 141.410156 Z M 225.871094 126.875 " fill-opacity="1" fill-rule="nonzero"/></g></g><g clip-path="url(#4712057456)"><g clip-path="url(#48c4e83477)"><path stroke-linecap="butt" transform="matrix(0.75, 0, 0, 0.75, 225.869711, 126.874722)" fill="none" stroke-linejoin="miter" d="M 9.689344 0.000370575 C 4.335177 0.000370575 0.00184331 4.338913 0.00184331 9.687871 C 0.00184331 15.03683 4.335177 19.375372 9.689344 19.375372 C 15.038303 19.375372 19.376845 15.03683 19.376845 9.687871 C 19.376845 4.338913 15.038303 0.000370575 9.689344 0.000370575 Z M 9.689344 0.000370575 " stroke="#000000" stroke-width="132" stroke-opacity="1" stroke-miterlimit="4"/></g></g><path stroke-linecap="butt" transform="matrix(0.75, 0, 0, 0.75, 75.440851, 210.143146)" fill="none" stroke-linejoin="miter" d="M 0.000740672 10.001847 L 365.724723 10.001847 " stroke="#000000" stroke-width="20" stroke-opacity="1" stroke-miterlimit="4"/><g clip-path="url(#94263b22f8)"><g clip-path="url(#36aa13cbc3)"><path fill="#000000" d="M 342.46875 210.375 L 357.003906 210.375 L 357.003906 224.910156 L 342.46875 224.910156 Z M 342.46875 210.375 " fill-opacity="1" fill-rule="nonzero"/></g></g><g clip-path="url(#f28d536c56)"><g clip-path="url(#66c6b6d74b)"><path stroke-linecap="butt" transform="matrix(0.75, 0, 0, 0.75, 342.468762, 210.375632)" fill="none" stroke-linejoin="miter" d="M 9.687485 -0.00084238 C 4.338526 -0.00084238 -0.000016015 4.3377 -0.000016015 9.686658 C -0.000016015 15.035617 4.338526 19.374159 9.687485 19.374159 C 15.036443 19.374159 19.374985 15.035617 19.374985 9.686658 C 19.374985 4.3377 15.036443 -0.00084238 9.687485 -0.00084238 Z M 9.687485 -0.00084238 " stroke="#000000" stroke-width="132" stroke-opacity="1" stroke-miterlimit="4"/></g></g><g clip-path="url(#93d5acce36)"><g clip-path="url(#653f6c8249)"><path fill="#000000" d="M 68.171875 210.375 L 82.707031 210.375 L 82.707031 224.910156 L 68.171875 224.910156 Z M 68.171875 210.375 " fill-opacity="1" fill-rule="nonzero"/></g></g><g clip-path="url(#506580a5bc)"><g clip-path="url(#3938ad4f7d)"><path stroke-linecap="butt" transform="matrix(0.75, 0, 0, 0.75, 68.17333, 210.375632)" fill="none" stroke-linejoin="miter" d="M 9.685561 -0.00084238 C 4.336602 -0.00084238 -0.0019395 4.3377 -0.0019395 9.686658 C -0.0019395 15.035617 4.336602 19.374159 9.685561 19.374159 C 15.039728 19.374159 19.373062 15.035617 19.373062 9.686658 C 19.373062 4.3377 15.039728 -0.00084238 9.685561 -0.00084238 Z M 9.685561 -0.00084238 " stroke="#000000" stroke-width="132" stroke-opacity="1" stroke-miterlimit="4"/></g></g><g clip-path="url(#9f35ed572c)"><g clip-path="url(#073ebf9591)"><path stroke-linecap="butt" transform="matrix(0.75, 0, 0, 0.75, 167.699876, 59.649447)" fill="none" stroke-linejoin="miter" d="M 43.618918 -0.00134638 C 19.530375 -0.00134638 -0.000876184 19.529905 -0.000876184 43.618448 C -0.000876184 67.706991 19.530375 87.233034 43.618918 87.233034 C 67.707462 87.233034 87.233505 67.706991 87.233505 43.618448 C 87.233505 19.529905 67.707462 -0.00134638 43.618918 -0.00134638 Z M 43.618918 -0.00134638 " stroke="#000000" stroke-width="40" stroke-opacity="1" stroke-miterlimit="4"/></g></g></svg>